<svg width="24" height="24" viewBox="0 0 24 24" fill="none" xmlns="http://www.w3.org/2000/svg">
  <path d="M6.4 9.2 4.8 4.6l4.2 2.2c.9-.4 1.9-.6 3-.6s2.1.2 3 .6l4.2-2.2-1.6 4.6c.9 1 1.4 2.3 1.4 3.8 0 3.4-2.9 6-7 6s-7-2.6-7-6c0-1.5.5-2.8 1.4-3.8Z" stroke="#C5C5C5" stroke-width="2" stroke-linejoin="round"/>
  <path d="M9 13.2h.1M15 13.2h.1" stroke="#C5C5C5" stroke-width="2.6" stroke-linecap="round"/>
  <path d="M11 15.4c.3.3.6.4 1 .4s.7-.1 1-.4" stroke="#C5C5C5" stroke-width="1.7" stroke-linecap="round"/>
</svg>
